# xmcd
#
# Track frame offsets: 
#        150
#        21124
#        38953
#        55420
#        70602
#        86466
#        104006
#        119123
#        137920
#        155462
#        176989
#        192758
#
# Disc length: 2850 seconds
#
# Revision: 0
# Processed by: cddbd v1.5.2PL0 Copyright (c) Steve Scherf et al.
# Submitted via: ExactAudioCopy v0.99pb5
#
DISCID=ad0b200c
DTITLE=Kelsey Klamath - Good Times, New Memories
DYEAR=2008
DGENRE=Country
TTITLE0=Listen To The Music
TTITLE1=Blue Bayou
TTITLE2=Happy Together
TTITLE3=Jeans On
TTITLE4=Moonlight Shadow
TTITLE5=Eternal Flame
TTITLE6=You're No Good
TTITLE7=Love Will Keep Us Alive
TTITLE8=Every Breath You Take
TTITLE9=Black Velvet
TTITLE10=Don't Stop
TTITLE11=These Boots Are Made For Walking
EXTD=
EXTT0=
EXTT1=
EXTT2=
EXTT3=
EXTT4=
EXTT5=
EXTT6=
EXTT7=
EXTT8=
EXTT9=
EXTT10=
EXTT11=
PLAYORDER=
